<svg width="64" height="64" viewBox="0 0 64 64" fill="none" xmlns="http://www.w3.org/2000/svg">
<path d="M60.3236 56.0407H3.67648V53.1465C3.67648 52.2608 4.39436 51.543 5.27998 51.543H58.72C59.6056 51.543 60.3235 52.2608 60.3235 53.1465V56.0407H60.3236Z" fill="#101840"/>
<path d="M58.72 51.543H55.5506C56.4363 51.543 57.1541 52.2608 57.1541 53.1465V56.0407H60.3235V53.1465C60.3236 52.2608 59.6056 51.543 58.72 51.543Z" fill="#282E49"/>
<path d="M54.2599 51.5432H9.74014V8.56631C9.74014 7.71419 10.4309 7.02344 11.283 7.02344H52.717C53.5691 7.02344 54.2599 7.71419 54.2599 8.56631V51.5432Z" fill="#FFD064"/>
<path d="M48.5908 48.9324H38.3408C37.8575 48.9324 37.4658 48.5406 37.4658 48.0574V45.7188C37.4658 45.2355 37.8575 44.8438 38.3408 44.8438H48.5908C49.074 44.8438 49.4658 45.2355 49.4658 45.7188V48.0574C49.4658 48.5406 49.074 48.9324 48.5908 48.9324Z" fill="#F7B741"/>
<path d="M49.4657 41.8065H37.4657C36.9324 41.8065 36.5 41.3741 36.5 40.8408C36.5 40.3074 36.9324 39.875 37.4657 39.875H49.4657C49.9992 39.875 50.4315 40.3074 50.4315 40.8408C50.4316 41.3741 49.9992 41.8065 49.4657 41.8065Z" fill="#F7B741"/>
<path d="M16.2855 45.9584C15.926 45.9584 15.6346 45.6671 15.6346 45.3075V40.5434C15.6346 40.1839 15.926 39.8926 16.2855 39.8926C16.645 39.8926 16.9364 40.1839 16.9364 40.5434V45.3075C16.9364 45.6671 16.6449 45.9584 16.2855 45.9584Z" fill="#101840"/>
<path d="M18.2951 42.4113C18.1299 42.4113 17.9646 42.3488 17.8377 42.2235L16.2854 40.6905L14.7332 42.2235C14.4774 42.4759 14.0654 42.4736 13.8128 42.2179C13.5602 41.9621 13.5628 41.55 13.8184 41.2975L15.828 39.3128C16.0816 39.0624 16.4892 39.0624 16.7428 39.3128L18.7524 41.2975C19.008 41.55 19.0107 41.9621 18.758 42.2179C18.6309 42.3467 18.4629 42.4113 18.2951 42.4113Z" fill="#101840"/>
<path d="M22.7247 45.9584C22.3652 45.9584 22.0739 45.6671 22.0739 45.3075V40.5434C22.0739 40.1839 22.3652 39.8926 22.7247 39.8926C23.0843 39.8926 23.3756 40.1839 23.3756 40.5434V45.3075C23.3756 45.6671 23.0842 45.9584 22.7247 45.9584Z" fill="#101840"/>
<path d="M24.7343 42.4113C24.5691 42.4113 24.4038 42.3488 24.2769 42.2235L22.7246 40.6905L21.1724 42.2235C20.9167 42.4759 20.5046 42.4736 20.252 42.2179C19.9994 41.9621 20.002 41.55 20.2576 41.2975L22.2672 39.3128C22.5208 39.0624 22.9284 39.0624 23.182 39.3128L25.1916 41.2975C25.4472 41.55 25.4499 41.9621 25.1972 42.2179C25.0701 42.3467 24.9022 42.4113 24.7343 42.4113Z" fill="#101840"/>
<path d="M24.1319 49.625H14.8568C14.3389 49.625 13.9193 49.2054 13.9193 48.6875C13.9193 48.1696 14.3389 47.75 14.8568 47.75H24.1319C24.6497 47.75 25.0694 48.1696 25.0694 48.6875C25.0694 49.2054 24.6496 49.625 24.1319 49.625Z" fill="#101840"/>
<path d="M52.717 7.02344H49.5268C50.3789 7.02344 51.0696 7.71419 51.0696 8.56631V51.5432H54.2599V8.56631C54.26 7.71419 53.5691 7.02344 52.717 7.02344Z" fill="#FFC250"/>
<path d="M63.0625 56.9785H0.9375C0.419625 56.9785 0 56.5589 0 56.041C0 55.5231 0.419625 55.1035 0.9375 55.1035H63.0625C63.5804 55.1035 64 55.5231 64 56.041C64 56.5589 63.5804 56.9785 63.0625 56.9785Z" fill="#59C8C1"/>
<path d="M34.7424 14.3464H29.2576C28.75 14.3464 28.3385 13.9349 28.3385 13.4273V7.02344H35.6615V13.4273C35.6615 13.9349 35.25 14.3464 34.7424 14.3464Z" fill="#101840"/>
<path d="M32.9918 7.02344V13.4273C32.9918 13.9349 32.5803 14.3464 32.0726 14.3464H34.7425C35.2501 14.3464 35.6616 13.9349 35.6616 13.4273V7.02344H32.9918Z" fill="#282E49"/>
</svg>
