<svg width="659" height="565" viewBox="0 0 659 565" fill="none" xmlns="http://www.w3.org/2000/svg">
<path d="M329.139 564.454C510.918 564.454 658.279 555.851 658.279 545.238C658.279 534.625 510.918 526.021 329.139 526.021C147.361 526.021 2.28882e-05 534.625 2.28882e-05 545.238C2.28882e-05 555.851 147.361 564.454 329.139 564.454Z" fill="#F5F5F5"/>
<path d="M495.755 34.4769C492.139 30.8611 485.179 17.1618 491.85 10.7111C498.522 4.26039 504.463 10.117 504.921 13.2574C505.38 16.3979 504.158 42.8628 495.755 34.4769Z" fill="#263238"/>
<path d="M494.227 527.261L479.068 527.397L474.943 492.359L490.085 492.223L494.227 527.261Z" fill="#FF8B7B"/>
<path d="M479.051 525.648L495.585 525.495C495.89 525.5 496.186 525.601 496.429 525.784C496.673 525.967 496.853 526.222 496.943 526.514L500.949 539.942C501.056 540.254 501.085 540.588 501.035 540.914C500.986 541.24 500.858 541.55 500.663 541.817C500.468 542.083 500.212 542.299 499.916 542.445C499.62 542.591 499.293 542.664 498.963 542.658C493.005 542.658 484.347 542.335 476.895 542.403C468.135 542.403 464.231 543.014 453.944 543.116C447.731 543.116 445.456 536.903 448.087 536.326C459.749 533.627 465.776 533.27 475.537 526.87C476.564 526.129 477.785 525.705 479.051 525.648Z" fill="#263238"/>
<path opacity="0.2" d="M474.943 492.376L477.081 510.438L492.224 510.302L490.102 492.24L474.943 492.376Z" fill="black"/>
<path d="M472.787 528.347C474.421 528.318 476.048 528.119 477.642 527.753C477.717 527.742 477.787 527.706 477.839 527.65C477.891 527.595 477.923 527.523 477.93 527.447C477.937 527.374 477.921 527.301 477.885 527.237C477.848 527.173 477.793 527.122 477.727 527.091C477.014 526.734 470.648 523.696 468.899 524.765C468.738 524.868 468.606 525.012 468.516 525.182C468.427 525.351 468.383 525.541 468.39 525.733C468.386 526.059 468.457 526.383 468.599 526.677C468.74 526.971 468.948 527.229 469.205 527.43C470.266 528.119 471.525 528.441 472.787 528.347ZM476.419 527.261C473.143 527.838 470.648 527.719 469.629 526.904C469.453 526.766 469.313 526.588 469.221 526.384C469.129 526.18 469.089 525.956 469.103 525.733C469.093 525.663 469.104 525.592 469.134 525.529C469.164 525.466 469.212 525.412 469.273 525.376C470.223 524.799 473.822 526.157 476.419 527.261Z" fill="#299FD9"/>
<path d="M477.574 527.855C477.654 527.849 477.731 527.819 477.794 527.77C477.846 527.732 477.884 527.679 477.906 527.618C477.927 527.558 477.929 527.492 477.913 527.43C477.913 527.159 476.725 520.64 473.126 521.048C472.176 521.149 471.904 521.642 471.853 522.015C471.598 523.713 475.486 527.006 477.421 527.821L477.574 527.855ZM473.432 521.744C475.605 521.744 476.691 525.292 477.065 526.836C475.061 525.716 472.413 523.136 472.566 522.117C472.566 522.117 472.566 521.829 473.211 521.761L473.432 521.744Z" fill="#299FD9"/>
<path d="M483.515 110.986L481.953 112.683L480.494 114.126C479.526 115.077 478.524 115.976 477.523 116.859C475.531 118.647 473.494 120.345 471.412 121.952C467.209 125.292 462.786 128.343 458.171 131.085C455.845 132.46 453.451 133.767 451.024 135.006C448.596 136.245 446.033 137.315 443.453 138.401C438.161 140.512 432.649 142.021 427.021 142.9L425.764 143.086C424.948 143.192 424.126 143.243 423.303 143.239C421.412 143.222 419.542 142.853 417.786 142.153C416.045 141.454 414.45 140.435 413.084 139.148C411.995 138.111 411.048 136.935 410.266 135.651C409.182 133.788 408.365 131.783 407.838 129.693C407.426 128.074 407.126 126.429 406.938 124.77C406.629 121.901 406.544 119.012 406.684 116.129C406.803 113.379 407.023 110.731 407.329 108.134C407.974 102.922 408.891 97.9484 410.011 92.8558C411.131 87.7631 412.405 83.0609 414.051 78.1379L425.204 80.3448C424.797 89.885 424.338 99.663 424.644 108.898C424.7 113.186 425.154 117.459 426.002 121.663C426.169 122.44 426.402 123.201 426.698 123.938C426.936 124.515 427.224 124.872 427.207 124.719C427.109 124.46 426.952 124.228 426.749 124.04C426.287 123.593 425.746 123.236 425.153 122.987C424.543 122.731 423.895 122.576 423.235 122.529C422.929 122.529 422.794 122.529 422.607 122.529H422.794L423.15 122.427C427.171 121.394 431.083 119.973 434.829 118.183C438.749 116.292 442.543 114.148 446.186 111.767C449.87 109.322 453.502 106.674 456.999 103.873C458.697 102.481 460.479 101.021 462.092 99.5441L464.57 97.3033L465.759 96.1999L466.794 95.2154L483.515 110.986Z" fill="#FF8B7B"/>
<path d="M492.495 104.993C491.918 88.9854 478.779 83.4174 462.313 94.3327C455.054 98.9352 448.065 103.951 441.382 109.356L452.026 143.545C452.026 143.545 472.396 137.077 484.177 124.379C492.105 115.756 492.699 110.443 492.495 104.993Z" fill="#263238"/>
<path opacity="0.2" d="M472.447 111.818C472.447 111.818 462.618 125.873 459.138 140.812C463.971 138.751 468.626 136.299 473.058 133.478L472.447 111.818Z" fill="black"/>
<path d="M424.644 85.4206L430.348 72.5361L414.204 67.8169C414.204 67.8169 411.437 73.979 413.016 84.5548L424.644 85.4206Z" fill="#FF8B7B"/>
<path d="M432.062 57.4277L418.023 59.1083L414.204 67.8168L430.348 72.536L432.062 57.4277Z" fill="#FF8B7B"/>
<path d="M472.549 221.039C472.549 221.039 462.126 308.395 460.972 355.146C459.783 403.713 469.307 501.679 469.307 501.679L496.654 501.101C496.654 501.101 499.948 396.226 503.92 348.169C508.232 295.782 519.096 220.088 519.096 220.088L472.549 221.039Z" fill="#299FD9"/>
<path opacity="0.6" d="M472.549 221.039C472.549 221.039 462.126 308.395 460.972 355.146C459.783 403.713 469.307 501.679 469.307 501.679L496.654 501.101C496.654 501.101 499.948 396.226 503.92 348.169C508.232 295.782 519.096 220.088 519.096 220.088L472.549 221.039Z" fill="white"/>
<path opacity="0.2" d="M505.125 245.772C492.903 272.712 496.179 332.891 503.122 358.693C503.377 354.942 503.648 351.394 503.92 348.118C506.755 313.589 512.408 268.961 515.99 242.53C512.662 237.709 508.945 237.335 505.125 245.772Z" fill="black"/>
<path d="M500.015 502.273L467.864 502.918L465.487 492.24L499.625 492.155L500.015 502.273Z" fill="#299FD9"/>
<path d="M561.773 527.261L546.63 527.397L542.505 492.359L557.647 492.223L561.773 527.261Z" fill="#FF8B7B"/>
<path d="M546.596 525.648L563.148 525.495C563.452 525.502 563.746 525.604 563.99 525.787C564.233 525.97 564.414 526.224 564.506 526.514L568.512 539.942C568.614 540.254 568.641 540.586 568.589 540.911C568.538 541.236 568.41 541.544 568.216 541.809C568.022 542.075 567.767 542.29 567.473 542.438C567.179 542.585 566.855 542.661 566.526 542.658C560.55 542.658 551.91 542.335 544.458 542.403C535.698 542.403 531.777 543.014 521.507 543.116C515.294 543.116 513.019 536.903 515.65 536.326C527.295 533.627 533.322 533.27 543.1 526.87C544.121 526.13 545.336 525.705 546.596 525.648Z" fill="#263238"/>
<path opacity="0.2" d="M542.505 492.376L544.627 510.438L559.786 510.302L557.664 492.24L542.505 492.376Z" fill="black"/>
<path d="M540.349 528.347C541.984 528.316 543.611 528.117 545.204 527.753C545.278 527.741 545.345 527.704 545.395 527.649C545.444 527.593 545.473 527.522 545.476 527.447C545.487 527.376 545.475 527.303 545.441 527.238C545.408 527.174 545.354 527.123 545.289 527.091C544.559 526.734 538.194 523.696 536.462 524.765C536.298 524.866 536.164 525.009 536.074 525.179C535.985 525.349 535.943 525.541 535.953 525.733C535.949 526.058 536.019 526.379 536.157 526.673C536.296 526.967 536.498 527.226 536.751 527.43C537.819 528.117 539.082 528.439 540.349 528.347ZM543.982 527.261C540.706 527.838 538.211 527.719 537.192 526.904C537.017 526.765 536.876 526.586 536.782 526.383C536.688 526.179 536.642 525.957 536.649 525.733C536.639 525.663 536.65 525.592 536.68 525.529C536.71 525.466 536.758 525.412 536.819 525.376C537.769 524.799 541.334 526.157 543.982 527.261Z" fill="#299FD9"/>
<path d="M545.12 527.855C545.172 527.853 545.223 527.84 545.27 527.817C545.317 527.794 545.358 527.762 545.392 527.722C545.426 527.682 545.451 527.635 545.465 527.585C545.479 527.535 545.483 527.482 545.476 527.43C545.476 527.159 544.288 520.64 540.689 521.048C539.738 521.149 539.467 521.642 539.399 522.015C539.161 523.713 543.049 527.006 544.984 527.821L545.12 527.855ZM540.994 521.744C543.15 521.744 544.254 525.292 544.627 526.836C542.624 525.716 539.959 523.136 540.112 522.117C540.112 522.117 540.112 521.829 540.757 521.761L540.994 521.744Z" fill="#299FD9"/>
<path d="M499.235 220.461C499.235 220.461 506.789 314.455 512.306 360.832C518.027 409.077 536.869 501.628 536.869 501.628L564.217 501.051C564.217 501.051 556.714 395.972 553.811 347.829C550.637 295.29 549.822 219.307 549.822 219.307L499.235 220.461Z" fill="#299FD9"/>
<path opacity="0.6" d="M499.235 220.461C499.235 220.461 506.789 314.455 512.306 360.832C518.027 409.077 536.869 501.628 536.869 501.628L564.217 501.051C564.217 501.051 556.714 395.972 553.811 347.829C550.637 295.29 549.822 219.307 549.822 219.307L499.235 220.461Z" fill="white"/>
<path d="M567.578 502.273L535.41 502.918L533.05 492.24L567.188 492.155L567.578 502.273Z" fill="#299FD9"/>
<path d="M470.665 90.1397C470.665 90.1397 459.478 131.662 472.549 221.038C496.96 220.512 537.956 219.561 549.822 219.341C550.127 206.898 540.944 145.887 551.689 87.0671C543.959 85.7322 536.14 84.9719 528.297 84.7924C516.817 84.3732 505.322 84.6226 493.87 85.5393C486.027 86.4672 478.269 88.0053 470.665 90.1397Z" fill="#263238"/>
<path opacity="0.2" d="M547.004 128.929L534.357 118.455C535.189 126.637 542.59 146.685 546.495 156.837C546.427 147.942 546.512 138.554 547.004 128.929Z" fill="black"/>
<path d="M501.764 114.211L487.963 141.525C487.671 142.098 487.569 142.75 487.672 143.385C487.774 144.02 488.075 144.606 488.532 145.059C488.989 145.512 489.578 145.809 490.214 145.906C490.85 146.003 491.5 145.895 492.071 145.599L501.085 140.642C501.575 140.378 502.129 140.258 502.684 140.294C503.24 140.33 503.774 140.521 504.225 140.846L513.104 147.246C513.614 147.616 514.229 147.813 514.86 147.807C515.49 147.801 516.102 147.592 516.605 147.212C517.107 146.831 517.474 146.298 517.651 145.693C517.827 145.088 517.804 144.442 517.585 143.85L507.213 114.686C507.033 114.132 506.693 113.642 506.237 113.279C505.78 112.916 505.227 112.695 504.646 112.645C504.065 112.594 503.482 112.716 502.969 112.994C502.457 113.273 502.038 113.696 501.764 114.211Z" fill="white"/>
<path d="M524.053 46.0203C522.118 57.1562 520.386 77.493 528.297 84.7076C528.297 84.7076 525.988 94.7911 504.921 98.288C490.764 93.7386 493.87 85.5224 493.87 85.5224C506.161 82.297 505.634 73.1472 503.309 64.5915L524.053 46.0203Z" fill="#FF8B7B"/>
<path opacity="0.2" d="M515.599 53.5745L503.309 64.5067C503.881 66.4998 504.278 68.5389 504.497 70.601C509.216 69.8201 515.582 64.4898 515.972 59.5499C516.213 57.552 516.086 55.5269 515.599 53.5745Z" fill="black"/>
<path d="M530.792 32.3211C526.701 46.7843 525.054 55.4588 516.023 61.3833C502.443 70.2785 485.79 59.6857 485.467 44.2549C485.162 30.4028 491.884 9.06455 507.536 6.34846C510.973 5.73859 514.51 6.0166 517.81 7.15617C521.111 8.29573 524.065 10.2591 526.395 12.8602C528.724 15.4614 530.35 18.6141 531.12 22.0198C531.889 25.4254 531.777 28.9712 530.792 32.3211Z" fill="#FF8B7B"/>
<path d="M522.084 41.1822C520.182 36.5649 518.807 21.3548 526.735 17.6201C534.663 13.8855 542.896 23.0014 540.808 27.3132C537.599 34.0016 526.497 51.8768 522.084 41.1822Z" fill="#263238"/>
<path d="M526.82 22.9845C524.868 17.8918 501.594 15.006 498.335 9.52284C494.464 3.00422 510.337 2.22334 521.252 5.53357C530.843 8.45337 537.243 11.2713 536.122 18.4011C535.494 22.4412 526.82 22.9845 526.82 22.9845Z" fill="#263238"/>
<path d="M531.879 17.7389C531.879 17.7389 536.971 19.1309 539.755 15.3962C538.873 19.0969 534.544 22.8315 531.879 17.7389Z" fill="#263238"/>
<path d="M508.571 2.03658C501.577 -3.3956 492.054 2.98722 492.954 10.066C493.853 17.1448 517.432 22.5261 517.432 22.5261C517.432 22.5261 517.857 9.2512 508.571 2.03658Z" fill="#263238"/>
<path d="M492.971 10.0999C494.04 15.0568 497.656 18.9442 504.972 21.83C500.738 18.6988 497.529 14.3795 495.755 9.4209L492.971 10.0999Z" fill="#263238"/>
<path d="M507.655 31.5911C507.4 32.7964 506.568 33.6282 505.787 33.4584C505.006 33.2887 504.582 32.1683 504.837 30.98C505.091 29.7917 505.94 28.9599 506.721 29.1297C507.502 29.2994 507.926 30.4707 507.655 31.5911Z" fill="#263238"/>
<path d="M494.176 28.6713C493.904 29.8596 493.072 30.6914 492.292 30.5217C491.511 30.3519 491.086 29.2485 491.341 28.0602C491.596 26.8719 492.444 26.0401 493.225 26.1929C494.006 26.3457 494.431 27.483 494.176 28.6713Z" fill="#263238"/>
<path d="M498.335 30.199C496.119 33.5383 493.451 36.5547 490.407 39.1621C492.105 41.5896 495.89 41.4708 495.89 41.4708L498.335 30.199Z" fill="#FF5652"/>
<path d="M498.64 45.5279C500.235 45.9238 501.901 45.9284 503.497 45.5411C505.093 45.1539 506.572 44.3864 507.807 43.3041C507.841 43.2709 507.868 43.2313 507.886 43.1876C507.905 43.1439 507.914 43.0969 507.914 43.0495C507.914 43.0021 507.905 42.9551 507.886 42.9114C507.868 42.8676 507.841 42.828 507.807 42.7948C507.738 42.7304 507.647 42.6946 507.553 42.6946C507.458 42.6946 507.367 42.7304 507.298 42.7948C506.139 43.7704 504.768 44.4611 503.294 44.8119C501.82 45.1627 500.285 45.1637 498.81 44.8149C498.716 44.7947 498.617 44.8128 498.536 44.8653C498.455 44.9179 498.398 45.0005 498.377 45.095C498.357 45.1896 498.375 45.2883 498.428 45.3695C498.48 45.4507 498.563 45.5077 498.657 45.5279H498.64Z" fill="#263238"/>
<path d="M512.662 28.1279C512.793 28.154 512.927 28.144 513.052 28.099C513.177 28.0541 513.288 27.9758 513.372 27.8728C513.455 27.7698 513.51 27.6458 513.528 27.5142C513.547 27.3827 513.529 27.2486 513.477 27.1263C513.019 26.0808 512.317 25.1597 511.432 24.4393C510.546 23.719 509.501 23.2202 508.384 22.9843C508.196 22.9599 508.005 23.0101 507.853 23.1243C507.701 23.2384 507.599 23.4075 507.57 23.5954C507.555 23.6879 507.559 23.7824 507.581 23.8734C507.603 23.9645 507.643 24.0503 507.698 24.1259C507.753 24.2016 507.823 24.2656 507.903 24.3144C507.982 24.3632 508.071 24.3958 508.164 24.4103C509.044 24.6038 509.866 25.0053 510.56 25.5812C511.254 26.157 511.8 26.8905 512.153 27.7205C512.2 27.8232 512.271 27.9135 512.36 27.9842C512.448 28.055 512.552 28.1041 512.662 28.1279Z" fill="#263238"/>
<path d="M489.253 22.7468C489.386 22.7836 489.527 22.779 489.658 22.7335C489.788 22.688 489.902 22.6038 489.983 22.4921C490.52 21.771 491.22 21.1864 492.025 20.7854C492.83 20.3843 493.718 20.1781 494.617 20.1835C494.806 20.2015 494.995 20.1436 495.141 20.0226C495.288 19.9017 495.38 19.7275 495.398 19.5384C495.416 19.3493 495.358 19.1608 495.237 19.0143C495.116 18.8679 494.942 18.7755 494.753 18.7575C493.614 18.7237 492.484 18.9653 491.458 19.4619C490.433 19.9584 489.542 20.6951 488.862 21.6094C488.802 21.682 488.757 21.7661 488.731 21.8566C488.704 21.947 488.696 22.042 488.707 22.1357C488.718 22.2293 488.748 22.3198 488.795 22.4015C488.843 22.4832 488.906 22.5545 488.981 22.611C489.059 22.679 489.152 22.7258 489.253 22.7468Z" fill="#263238"/>
<path d="M555.39 98.6445C558.479 104.043 561.06 109.271 563.742 114.652C566.424 120.034 568.834 125.449 571.126 130.983C573.418 136.517 575.642 142.136 577.577 147.959C579.589 153.765 581.289 159.676 582.67 165.664L583.705 170.298C584.158 172.475 584.352 174.697 584.282 176.919C584.138 181.047 583.223 185.112 581.583 188.904C578.701 195.292 574.601 201.058 569.513 205.879C564.975 210.261 560.03 214.2 554.745 217.643C552.181 219.341 549.533 220.903 546.868 222.396C544.203 223.89 541.555 225.265 538.584 226.572L532.948 216.71C535.002 215.012 537.26 213.315 539.365 211.481C541.47 209.648 543.524 207.78 545.561 205.913C549.494 202.264 553.143 198.32 556.476 194.115C559.44 190.509 561.739 186.405 563.266 181.995C563.792 180.351 563.999 178.623 563.878 176.902C563.828 176.21 563.697 175.526 563.487 174.865L562.333 171.062C558.903 160.515 554.821 150.191 550.11 140.15C547.785 135.057 545.306 129.964 542.828 124.872C540.349 119.779 537.735 114.686 535.206 109.848L555.39 98.6445Z" fill="#FF8B7B"/>
<path d="M552.266 87.1521C566.424 90.2077 576.27 127.147 576.27 127.147L550.959 150.114C542.912 141.162 536.582 130.804 532.286 119.558C525.581 101.072 537.124 83.8588 552.266 87.1521Z" fill="#263238"/>
<path d="M536.021 214.961L519.741 215.131L529.926 231.546C529.926 231.546 541.521 228.677 542.556 222.855L536.021 214.961Z" fill="#FF8B7B"/>
<path d="M509.607 224.824L518.587 237.997L529.842 231.546L519.741 215.131L509.607 224.824Z" fill="#FF8B7B"/>
<path d="M535.24 45.5618C533.431 48.8896 530.38 51.3671 526.752 52.4539C521.931 53.8628 519.469 49.568 520.76 45.0016C521.931 40.8935 525.852 35.2067 530.673 35.8008C535.494 36.395 537.396 41.4707 535.24 45.5618Z" fill="#FF8B7B"/>
<path d="M485.315 125.992L185.594 147.602C179.356 148.089 173.562 151.016 169.468 155.748C165.375 160.48 163.313 166.636 163.729 172.879L173.915 314.149C174.397 320.397 177.327 326.201 182.067 330.299C186.807 334.397 192.974 336.457 199.225 336.031L216.201 334.809C217.434 334.72 218.652 335.124 219.588 335.932C220.524 336.741 221.101 337.887 221.192 339.12L223.093 365.297C223.124 365.804 223.306 366.29 223.615 366.693C223.925 367.095 224.348 367.396 224.829 367.557C225.311 367.718 225.83 367.73 226.319 367.594C226.808 367.457 227.246 367.178 227.575 366.791L255.992 333.943C257.187 332.567 258.877 331.719 260.694 331.583L498.895 314.421C505.136 313.939 510.935 311.013 515.032 306.281C519.129 301.548 521.193 295.39 520.777 289.144L510.591 147.874C510.109 141.633 507.184 135.834 502.451 131.737C497.718 127.64 491.56 125.576 485.315 125.992Z" fill="#299FD9"/>
<path d="M219.986 213.692C219.8 212.673 219.297 211.91 218.477 211.405C217.657 210.899 216.585 210.701 215.26 210.81C214.36 210.884 213.61 211.074 213.011 211.38C212.411 211.677 211.963 212.06 211.669 212.529C211.382 212.997 211.262 213.512 211.308 214.072C211.329 214.541 211.461 214.941 211.702 215.271C211.951 215.601 212.277 215.878 212.681 216.102C213.083 216.316 213.543 216.497 214.059 216.642C214.575 216.78 215.123 216.889 215.702 216.969L218.093 217.337C219.252 217.498 220.324 217.752 221.311 218.099C222.297 218.445 223.164 218.9 223.911 219.463C224.659 220.025 225.258 220.712 225.71 221.521C226.169 222.33 226.448 223.277 226.546 224.364C226.669 225.962 226.375 227.38 225.665 228.618C224.962 229.847 223.881 230.847 222.422 231.617C220.971 232.378 219.184 232.845 217.06 233.02C214.954 233.193 213.092 233.021 211.476 232.504C209.869 231.986 208.576 231.131 207.597 229.937C206.626 228.734 206.042 227.196 205.845 225.322L211.183 224.883C211.315 225.753 211.625 226.463 212.115 227.013C212.613 227.553 213.248 227.942 214.02 228.177C214.799 228.404 215.665 228.478 216.616 228.4C217.551 228.323 218.351 228.121 219.016 227.792C219.69 227.463 220.199 227.041 220.541 226.525C220.884 226.01 221.029 225.438 220.977 224.809C220.929 224.223 220.715 223.745 220.333 223.374C219.961 223.003 219.432 222.704 218.746 222.478C218.069 222.252 217.245 222.063 216.275 221.912L213.375 221.432C211.131 221.078 209.326 220.384 207.958 219.35C206.59 218.317 205.831 216.836 205.681 214.907C205.543 213.328 205.85 211.913 206.602 210.662C207.363 209.411 208.464 208.393 209.904 207.607C211.345 206.822 213.016 206.351 214.919 206.195C216.856 206.035 218.573 206.228 220.072 206.771C221.579 207.315 222.784 208.143 223.688 209.258C224.592 210.372 225.121 211.705 225.274 213.258L219.986 213.692Z" fill="white"/>
<path d="M239.001 231.229C236.987 231.394 235.221 231.129 233.702 230.433C232.19 229.728 230.982 228.656 230.076 227.216C229.171 225.769 228.633 224.013 228.463 221.949C228.298 219.936 228.543 218.137 229.2 216.552C229.856 214.967 230.859 213.692 232.207 212.726C233.565 211.759 235.203 211.197 237.123 211.039C238.414 210.933 239.633 211.042 240.78 211.367C241.934 211.683 242.962 212.218 243.862 212.974C244.771 213.728 245.51 214.711 246.08 215.921C246.649 217.123 247.002 218.556 247.139 220.221L247.261 221.712L230.736 223.07L230.46 219.707L241.876 218.768C241.811 217.987 241.585 217.308 241.195 216.733C240.806 216.158 240.296 215.725 239.665 215.435C239.041 215.136 238.335 215.019 237.545 215.084C236.721 215.151 236.006 215.402 235.401 215.837C234.803 216.262 234.352 216.808 234.047 217.475C233.742 218.133 233.617 218.848 233.672 219.622L233.935 222.82C234.015 223.788 234.262 224.61 234.677 225.286C235.1 225.961 235.658 226.462 236.352 226.79C237.046 227.118 237.848 227.245 238.757 227.17C239.36 227.12 239.905 226.99 240.392 226.779C240.879 226.568 241.287 226.278 241.616 225.909C241.945 225.539 242.182 225.101 242.329 224.593L247.376 224.511C247.22 225.739 246.785 226.835 246.069 227.8C245.361 228.756 244.407 229.536 243.208 230.139C242.017 230.733 240.614 231.096 239.001 231.229Z" fill="white"/>
<path d="M254.058 203.336L256.204 229.43L250.776 229.876L248.631 203.782L254.058 203.336Z" fill="white"/>
<path d="M265.445 229.042C264.196 229.144 263.066 229.019 262.053 228.666C261.04 228.305 260.214 227.719 259.574 226.908C258.942 226.087 258.573 225.032 258.467 223.741C258.378 222.653 258.502 221.724 258.841 220.952C259.179 220.18 259.674 219.541 260.325 219.034C260.976 218.527 261.73 218.123 262.586 217.822C263.45 217.52 264.363 217.283 265.323 217.11C266.452 216.897 267.36 216.711 268.048 216.552C268.736 216.384 269.228 216.182 269.525 215.943C269.822 215.705 269.953 215.378 269.919 214.962L269.912 214.885C269.846 214.078 269.54 213.475 268.994 213.075C268.456 212.675 267.725 212.513 266.799 212.589C265.822 212.669 265.063 212.949 264.521 213.43C263.978 213.902 263.64 214.469 263.506 215.13L258.452 215.135C258.61 213.925 259.026 212.856 259.702 211.928C260.378 210.991 261.287 210.241 262.429 209.677C263.579 209.104 264.936 208.753 266.499 208.624C267.586 208.535 268.637 208.577 269.652 208.75C270.675 208.922 271.595 209.244 272.412 209.716C273.237 210.187 273.91 210.824 274.429 211.628C274.948 212.423 275.255 213.403 275.351 214.566L276.436 227.766L271.288 228.189L271.065 225.476L270.912 225.488C270.648 226.126 270.272 226.7 269.784 227.21C269.295 227.712 268.692 228.125 267.975 228.449C267.257 228.765 266.413 228.962 265.445 229.042ZM266.692 225.168C267.49 225.103 268.182 224.887 268.768 224.523C269.353 224.15 269.797 223.677 270.101 223.105C270.404 222.533 270.528 221.902 270.471 221.214L270.3 219.138C270.14 219.262 269.914 219.383 269.625 219.501C269.343 219.61 269.023 219.717 268.664 219.824C268.304 219.922 267.944 220.016 267.584 220.105C267.223 220.186 266.895 220.26 266.601 220.327C265.972 220.473 265.428 220.667 264.969 220.91C264.51 221.153 264.163 221.459 263.929 221.829C263.693 222.191 263.596 222.626 263.638 223.136C263.699 223.875 264.013 224.418 264.58 224.765C265.155 225.102 265.859 225.237 266.692 225.168Z" fill="white"/>
<path d="M279.929 227.479L278.32 207.909L283.493 207.483L283.777 210.936L284.006 210.917C284.32 209.737 284.925 208.777 285.822 208.036C286.719 207.295 287.83 206.87 289.155 206.761C290.497 206.651 291.667 206.893 292.665 207.486C293.662 208.071 294.365 208.92 294.772 210.032L294.976 210.015C295.283 208.861 295.932 207.906 296.921 207.149C297.919 206.383 299.135 205.941 300.571 205.823C302.397 205.673 303.927 206.133 305.161 207.203C306.402 208.264 307.111 209.856 307.285 211.979L308.367 225.141L302.952 225.586L301.958 213.495C301.869 212.408 301.513 211.616 300.891 211.12C300.268 210.624 299.524 210.411 298.658 210.482C297.672 210.563 296.929 210.941 296.429 211.615C295.928 212.28 295.719 213.123 295.803 214.142L296.786 226.093L291.524 226.526L290.52 214.32C290.441 213.36 290.102 212.618 289.503 212.095C288.913 211.57 288.172 211.345 287.28 211.418C286.677 211.467 286.146 211.665 285.687 212.011C285.235 212.347 284.892 212.799 284.656 213.365C284.42 213.923 284.332 214.564 284.391 215.286L285.357 227.033L279.929 227.479Z" fill="white"/>
<path d="M317.548 224.758C316.299 224.861 315.169 224.736 314.156 224.383C313.143 224.021 312.317 223.435 311.677 222.624C311.045 221.804 310.676 220.748 310.57 219.457C310.481 218.37 310.605 217.44 310.944 216.668C311.282 215.897 311.777 215.257 312.428 214.751C313.079 214.244 313.833 213.84 314.689 213.539C315.553 213.237 316.466 212.999 317.426 212.826C318.555 212.614 319.463 212.428 320.151 212.269C320.839 212.101 321.331 211.898 321.628 211.66C321.925 211.422 322.056 211.094 322.022 210.678L322.015 210.602C321.949 209.795 321.643 209.191 321.097 208.792C320.559 208.391 319.828 208.229 318.902 208.305C317.925 208.385 317.166 208.666 316.624 209.146C316.081 209.619 315.743 210.185 315.609 210.846L310.555 210.851C310.713 209.641 311.129 208.572 311.805 207.644C312.481 206.708 313.39 205.958 314.532 205.393C315.682 204.82 317.039 204.469 318.602 204.34C319.689 204.251 320.74 204.293 321.755 204.466C322.778 204.638 323.698 204.96 324.515 205.432C325.34 205.903 326.013 206.54 326.532 207.344C327.051 208.14 327.358 209.119 327.453 210.283L328.539 223.483L323.391 223.906L323.168 221.192L323.015 221.205C322.751 221.842 322.375 222.416 321.887 222.926C321.398 223.428 320.795 223.841 320.078 224.165C319.36 224.481 318.516 224.679 317.548 224.758ZM318.794 220.885C319.593 220.819 320.285 220.604 320.871 220.239C321.456 219.866 321.9 219.393 322.204 218.821C322.507 218.249 322.631 217.619 322.574 216.931L322.403 214.854C322.243 214.978 322.017 215.1 321.728 215.217C321.446 215.326 321.126 215.434 320.767 215.54C320.407 215.638 320.047 215.732 319.687 215.821C319.326 215.902 318.998 215.976 318.704 216.043C318.075 216.189 317.531 216.383 317.072 216.626C316.613 216.869 316.266 217.176 316.032 217.546C315.796 217.907 315.699 218.343 315.741 218.852C315.802 219.591 316.116 220.134 316.683 220.481C317.258 220.818 317.962 220.953 318.794 220.885Z" fill="white"/>
<path d="M340.833 202.769L341.168 206.846L329.382 207.815L329.047 203.738L340.833 202.769ZM331.337 198.829L336.765 198.383L338.265 216.629C338.306 217.13 338.415 217.514 338.591 217.782C338.766 218.041 338.994 218.215 339.275 218.303C339.564 218.39 339.892 218.419 340.257 218.389C340.512 218.368 340.765 218.326 341.016 218.262C341.267 218.19 341.459 218.136 341.593 218.099L342.778 222.068C342.514 222.175 342.139 222.305 341.656 222.455C341.173 222.615 340.58 222.736 339.877 222.82C338.573 222.978 337.412 222.898 336.394 222.58C335.384 222.261 334.573 221.704 333.96 220.908C333.348 220.111 332.993 219.072 332.896 217.788L331.337 198.829Z" fill="white"/>
<path d="M362.198 220.715L352.948 221.476L350.803 195.382L360.129 194.615C362.754 194.399 365.056 194.736 367.036 195.625C369.016 196.506 370.595 197.877 371.774 199.738C372.962 201.599 373.667 203.884 373.89 206.593C374.113 209.311 373.792 211.69 372.924 213.728C372.066 215.765 370.724 217.385 368.898 218.587C367.082 219.788 364.848 220.497 362.198 220.715ZM358.076 216.295L361.58 216.007C363.211 215.873 364.559 215.472 365.624 214.802C366.697 214.124 367.464 213.15 367.924 211.881C368.392 210.603 368.546 208.991 368.386 207.046C368.227 205.118 367.813 203.565 367.143 202.389C366.482 201.212 365.572 200.38 364.411 199.894C363.251 199.408 361.856 199.232 360.225 199.366L356.708 199.655L358.076 216.295Z" fill="white"/>
<path d="M383.843 219.308C382.594 219.41 381.464 219.285 380.451 218.932C379.438 218.571 378.612 217.985 377.972 217.174C377.34 216.353 376.971 215.298 376.865 214.007C376.776 212.919 376.9 211.99 377.239 211.218C377.577 210.446 378.072 209.807 378.723 209.3C379.374 208.793 380.127 208.389 380.983 208.088C381.848 207.786 382.761 207.549 383.721 207.376C384.85 207.163 385.758 206.977 386.446 206.818C387.134 206.65 387.626 206.447 387.922 206.209C388.219 205.971 388.351 205.644 388.316 205.228L388.31 205.151C388.244 204.344 387.938 203.741 387.392 203.341C386.854 202.941 386.122 202.778 385.197 202.855C384.22 202.935 383.46 203.215 382.918 203.696C382.376 204.168 382.038 204.735 381.904 205.396L376.85 205.401C377.007 204.191 377.424 203.122 378.1 202.194C378.776 201.257 379.685 200.507 380.827 199.943C381.977 199.369 383.333 199.018 384.896 198.89C385.984 198.801 387.035 198.842 388.049 199.016C389.073 199.188 389.993 199.51 390.81 199.982C391.635 200.452 392.307 201.09 392.827 201.894C393.345 202.689 393.653 203.669 393.748 204.832L394.833 218.032L389.686 218.455L389.463 215.742L389.31 215.754C389.046 216.392 388.67 216.965 388.182 217.476C387.693 217.978 387.09 218.391 386.372 218.715C385.654 219.031 384.811 219.228 383.843 219.308ZM385.089 215.434C385.888 215.368 386.58 215.153 387.166 214.789C387.751 214.416 388.195 213.943 388.498 213.371C388.802 212.799 388.925 212.168 388.869 211.48L388.698 209.404C388.537 209.528 388.312 209.649 388.023 209.767C387.741 209.876 387.42 209.983 387.061 210.09C386.702 210.188 386.342 210.281 385.981 210.371C385.62 210.452 385.293 210.526 384.999 210.593C384.37 210.739 383.826 210.933 383.367 211.176C382.908 211.419 382.561 211.725 382.326 212.095C382.091 212.457 381.994 212.892 382.036 213.402C382.097 214.141 382.411 214.684 382.978 215.03C383.553 215.368 384.257 215.503 385.089 215.434Z" fill="white"/>
<path d="M407.127 197.319L407.463 201.396L395.677 202.365L395.342 198.288L407.127 197.319ZM397.632 193.379L403.06 192.933L404.56 211.178C404.601 211.679 404.709 212.064 404.885 212.331C405.061 212.591 405.289 212.764 405.57 212.852C405.859 212.94 406.186 212.968 406.552 212.938C406.806 212.917 407.059 212.875 407.311 212.812C407.561 212.74 407.754 212.686 407.887 212.649L409.073 216.618C408.808 216.725 408.434 216.854 407.951 217.005C407.468 217.164 406.875 217.286 406.172 217.369C404.868 217.528 403.707 217.448 402.689 217.13C401.679 216.811 400.868 216.253 400.255 215.457C399.642 214.661 399.288 213.621 399.191 212.338L397.632 193.379Z" fill="white"/>
<path d="M417.165 216.568C415.917 216.671 414.786 216.546 413.774 216.193C412.761 215.831 411.934 215.245 411.295 214.434C410.663 213.614 410.294 212.558 410.188 211.267C410.098 210.18 410.223 209.25 410.561 208.478C410.9 207.707 411.394 207.067 412.045 206.561C412.696 206.054 413.45 205.65 414.306 205.349C415.171 205.047 416.083 204.809 417.044 204.636C418.172 204.424 419.08 204.238 419.769 204.078C420.456 203.911 420.948 203.708 421.245 203.47C421.542 203.231 421.673 202.904 421.639 202.488L421.633 202.412C421.566 201.605 421.26 201.001 420.714 200.602C420.177 200.201 419.445 200.039 418.519 200.115C417.542 200.195 416.783 200.476 416.241 200.956C415.698 201.429 415.36 201.995 415.226 202.656L410.173 202.661C410.33 201.451 410.746 200.382 411.423 199.454C412.098 198.518 413.007 197.768 414.149 197.203C415.3 196.63 416.656 196.279 418.219 196.15C419.306 196.061 420.357 196.103 421.372 196.276C422.395 196.448 423.315 196.77 424.132 197.242C424.958 197.713 425.63 198.35 426.149 199.154C426.668 199.95 426.975 200.929 427.071 202.093L428.156 215.293L423.009 215.716L422.786 213.002L422.633 213.014C422.369 213.652 421.993 214.226 421.504 214.736C421.015 215.238 420.412 215.651 419.695 215.975C418.977 216.291 418.134 216.489 417.165 216.568ZM418.412 212.694C419.21 212.629 419.902 212.414 420.488 212.049C421.073 211.676 421.517 211.203 421.821 210.631C422.125 210.059 422.248 209.429 422.191 208.741L422.021 206.664C421.86 206.788 421.635 206.91 421.345 207.027C421.063 207.136 420.743 207.244 420.384 207.35C420.024 207.448 419.664 207.542 419.304 207.631C418.943 207.712 418.615 207.786 418.322 207.853C417.692 207.999 417.148 208.193 416.689 208.436C416.23 208.679 415.884 208.986 415.649 209.356C415.413 209.717 415.317 210.153 415.359 210.662C415.419 211.401 415.733 211.944 416.301 212.291C416.876 212.628 417.579 212.763 418.412 212.694Z" fill="white"/>
<path d="M436.147 203.245L437.077 214.559L431.649 215.005L430.04 195.435L435.213 195.01L435.497 198.463L435.727 198.444C436.066 197.27 436.718 196.31 437.683 195.563C438.647 194.809 439.856 194.372 441.308 194.252C442.667 194.14 443.877 194.34 444.936 194.852C445.996 195.363 446.851 196.148 447.503 197.206C448.153 198.256 448.541 199.541 448.666 201.061L449.691 213.522L444.263 213.968L443.318 202.476C443.228 201.277 442.846 200.368 442.17 199.748C441.494 199.12 440.613 198.85 439.526 198.939C438.795 199 438.163 199.21 437.628 199.57C437.101 199.93 436.706 200.424 436.441 201.053C436.184 201.673 436.086 202.403 436.147 203.245Z" fill="white"/>
<path d="M462.705 220.251C460.947 220.396 459.419 220.278 458.122 219.897C456.834 219.524 455.787 218.956 454.98 218.192C454.174 217.429 453.618 216.543 453.312 215.533L458.277 214.445C458.462 214.823 458.734 215.169 459.093 215.481C459.452 215.794 459.912 216.03 460.472 216.189C461.042 216.356 461.722 216.407 462.512 216.342C463.692 216.245 464.641 215.876 465.358 215.236C466.084 214.603 466.392 213.616 466.282 212.273L465.988 208.693L465.758 208.712C465.565 209.275 465.251 209.818 464.815 210.342C464.379 210.865 463.8 211.31 463.077 211.678C462.355 212.045 461.476 212.271 460.439 212.356C458.97 212.477 457.604 212.247 456.342 211.667C455.088 211.077 454.046 210.107 453.217 208.756C452.395 207.395 451.895 205.632 451.717 203.466C451.535 201.249 451.744 199.367 452.343 197.822C452.943 196.276 453.812 195.084 454.948 194.247C456.094 193.408 457.384 192.93 458.82 192.812C459.916 192.722 460.848 192.834 461.618 193.147C462.387 193.451 463.019 193.861 463.515 194.376C464.018 194.882 464.415 195.388 464.704 195.895L464.908 195.878L464.638 192.591L470.027 192.147L471.652 211.909C471.789 213.574 471.496 215 470.773 216.189C470.049 217.377 468.989 218.311 467.591 218.99C466.202 219.677 464.573 220.097 462.705 220.251ZM461.824 208.138C462.699 208.066 463.42 207.788 463.988 207.306C464.563 206.814 464.979 206.147 465.234 205.305C465.498 204.453 465.582 203.455 465.488 202.308C465.394 201.161 465.151 200.181 464.759 199.366C464.366 198.543 463.845 197.923 463.195 197.507C462.545 197.09 461.783 196.917 460.908 196.989C460.016 197.062 459.284 197.366 458.712 197.901C458.14 198.427 457.731 199.127 457.487 200.003C457.242 200.878 457.166 201.872 457.257 202.985C457.35 204.114 457.588 205.078 457.97 205.876C458.36 206.665 458.875 207.26 459.515 207.66C460.163 208.052 460.932 208.211 461.824 208.138Z" fill="white"/>
<path d="M270.843 272.695C269.357 272.817 267.979 272.546 266.71 271.881C265.449 271.206 264.404 270.15 263.576 268.713C262.756 267.267 262.256 265.453 262.077 263.27C261.892 261.027 262.1 259.133 262.7 257.587C263.299 256.033 264.167 254.837 265.304 254C266.449 253.153 267.739 252.671 269.174 252.553C270.27 252.462 271.198 252.574 271.96 252.888C272.729 253.192 273.361 253.602 273.857 254.117C274.36 254.623 274.752 255.13 275.033 255.637L275.199 255.623L274.392 245.813L279.807 245.367L281.953 271.461L276.601 271.901L276.344 268.767L276.114 268.786C275.904 269.35 275.588 269.919 275.164 270.493C274.749 271.057 274.186 271.544 273.476 271.953C272.774 272.361 271.896 272.609 270.843 272.695ZM272.208 268.235C273.083 268.163 273.802 267.864 274.366 267.339C274.938 266.804 275.35 266.091 275.601 265.198C275.861 264.304 275.944 263.275 275.848 262.112C275.752 260.948 275.508 259.951 275.114 259.119C274.721 258.288 274.199 257.664 273.549 257.247C272.899 256.83 272.137 256.657 271.262 256.729C270.37 256.803 269.638 257.107 269.067 257.641C268.495 258.175 268.087 258.884 267.843 259.768C267.6 260.652 267.524 261.659 267.617 262.788C267.711 263.927 267.951 264.92 268.337 265.769C268.731 266.609 269.25 267.251 269.893 267.694C270.545 268.128 271.316 268.308 272.208 268.235Z" fill="white"/>
<path d="M285.698 271.153L284.089 251.583L289.516 251.137L291.125 270.707L285.698 271.153ZM286.608 248.836C285.801 248.902 285.087 248.692 284.465 248.204C283.851 247.707 283.513 247.081 283.451 246.325C283.39 245.577 283.622 244.913 284.147 244.331C284.68 243.74 285.349 243.411 286.156 243.345C286.963 243.278 287.674 243.493 288.287 243.99C288.909 244.478 289.251 245.096 289.312 245.843C289.374 246.599 289.139 247.272 288.606 247.864C288.081 248.446 287.415 248.77 286.608 248.836Z" fill="white"/>
<path d="M302.444 269.776L300.299 243.683L317.881 242.237L318.255 246.786L306.19 247.778L306.701 253.995L317.862 253.078L318.236 257.626L307.075 258.544L307.587 264.774L319.704 263.778L320.078 268.327L302.444 269.776Z" fill="white"/>
<path d="M330.831 267.763C329.345 267.885 327.967 267.614 326.698 266.949C325.437 266.274 324.392 265.218 323.564 263.781C322.744 262.335 322.244 260.521 322.065 258.338C321.88 256.095 322.088 254.201 322.688 252.655C323.287 251.101 324.155 249.905 325.292 249.068C326.437 248.221 327.727 247.739 329.162 247.621C330.258 247.531 331.186 247.642 331.948 247.956C332.717 248.261 333.349 248.67 333.845 249.185C334.348 249.691 334.74 250.198 335.021 250.705L335.187 250.691L334.38 240.881L339.795 240.435L341.941 266.529L336.589 266.969L336.332 263.835L336.102 263.854C335.892 264.418 335.576 264.987 335.152 265.561C334.737 266.125 334.174 266.612 333.464 267.021C332.762 267.429 331.884 267.677 330.831 267.763ZM332.196 263.303C333.071 263.231 333.79 262.932 334.354 262.407C334.926 261.872 335.338 261.159 335.589 260.266C335.849 259.372 335.931 258.344 335.836 257.18C335.74 256.016 335.496 255.019 335.102 254.187C334.709 253.356 334.187 252.732 333.537 252.315C332.887 251.898 332.125 251.725 331.25 251.797C330.358 251.871 329.626 252.175 329.055 252.709C328.483 253.244 328.075 253.953 327.831 254.836C327.588 255.72 327.512 256.727 327.605 257.857C327.699 258.995 327.939 259.988 328.325 260.837C328.719 261.677 329.238 262.319 329.881 262.762C330.532 263.196 331.304 263.376 332.196 263.303Z" fill="white"/>
<path d="M357.55 256.857L356.627 245.619L362.054 245.173L363.663 264.743L358.452 265.172L358.16 261.617L357.956 261.634C357.609 262.817 356.95 263.799 355.979 264.58C355.017 265.36 353.801 265.811 352.332 265.931C351.024 266.039 349.848 265.836 348.806 265.323C347.763 264.811 346.916 264.029 346.266 262.98C345.623 261.929 345.235 260.64 345.101 259.112L344.077 246.651L349.504 246.205L350.449 257.697C350.553 258.852 350.938 259.739 351.604 260.36C352.271 260.981 353.118 261.249 354.146 261.164C354.8 261.111 355.4 260.912 355.944 260.568C356.488 260.215 356.91 259.727 357.209 259.104C357.517 258.48 357.631 257.731 357.55 256.857Z" fill="white"/>
<path d="M376.088 244.019L376.423 248.096L364.637 249.065L364.302 244.988L376.088 244.019ZM366.592 240.079L372.02 239.633L373.52 257.878C373.561 258.38 373.67 258.764 373.846 259.032C374.021 259.291 374.249 259.465 374.53 259.553C374.819 259.64 375.147 259.669 375.512 259.639C375.767 259.618 376.02 259.576 376.271 259.512C376.522 259.44 376.714 259.386 376.848 259.349L378.034 263.318C377.769 263.425 377.395 263.555 376.911 263.705C376.428 263.865 375.835 263.986 375.132 264.07C373.828 264.228 372.667 264.148 371.649 263.83C370.64 263.511 369.828 262.954 369.216 262.157C368.603 261.361 368.248 260.322 368.151 259.038L366.592 240.079Z" fill="white"/>
<path d="M389.255 263.024C387.242 263.19 385.475 262.924 383.956 262.228C382.444 261.523 381.236 260.451 380.331 259.012C379.425 257.564 378.887 255.808 378.717 253.744C378.552 251.731 378.797 249.932 379.454 248.347C380.11 246.763 381.113 245.487 382.462 244.521C383.819 243.555 385.457 242.992 387.377 242.835C388.668 242.728 389.887 242.838 391.034 243.162C392.189 243.478 393.216 244.013 394.116 244.769C395.025 245.524 395.764 246.506 396.334 247.716C396.903 248.918 397.256 250.351 397.393 252.016L397.515 253.507L380.99 254.866L380.714 251.502L392.13 250.563C392.066 249.782 391.839 249.104 391.449 248.528C391.06 247.953 390.55 247.521 389.919 247.231C389.296 246.931 388.589 246.814 387.799 246.879C386.975 246.947 386.26 247.198 385.655 247.632C385.057 248.058 384.606 248.604 384.301 249.27C383.996 249.928 383.871 250.644 383.926 251.417L384.189 254.615C384.269 255.584 384.516 256.406 384.931 257.081C385.354 257.756 385.913 258.258 386.607 258.586C387.301 258.913 388.102 259.04 389.011 258.965C389.614 258.916 390.159 258.785 390.646 258.574C391.133 258.363 391.541 258.073 391.87 257.704C392.199 257.335 392.437 256.896 392.583 256.388L397.63 256.307C397.475 257.534 397.039 258.63 396.323 259.595C395.615 260.551 394.661 261.331 393.462 261.934C392.271 262.528 390.869 262.891 389.255 263.024Z" fill="white"/>
<path d="M416.163 246.343L411.219 247.057C411.099 246.639 410.885 246.272 410.577 245.955C410.268 245.63 409.876 245.384 409.401 245.218C408.933 245.043 408.385 244.981 407.756 245.033C406.915 245.102 406.221 245.339 405.673 245.743C405.124 246.139 404.873 246.63 404.921 247.216C404.96 247.683 405.179 248.062 405.579 248.354C405.98 248.647 406.642 248.853 407.567 248.974L411.168 249.396C413.103 249.63 414.573 250.142 415.578 250.932C416.584 251.721 417.145 252.821 417.261 254.231C417.366 255.514 417.081 256.67 416.404 257.701C415.736 258.73 414.771 259.571 413.507 260.222C412.252 260.864 410.775 261.255 409.076 261.395C406.485 261.608 404.377 261.238 402.751 260.285C401.132 259.324 400.115 257.92 399.698 256.073L405.013 255.353C405.24 256.13 405.68 256.701 406.334 257.066C406.988 257.423 407.799 257.562 408.767 257.482C409.718 257.404 410.468 257.158 411.015 256.746C411.571 256.324 411.829 255.819 411.789 255.232C411.74 254.741 411.499 254.354 411.065 254.073C410.631 253.784 409.982 253.589 409.119 253.489L405.674 253.093C403.731 252.868 402.254 252.322 401.242 251.456C400.239 250.589 399.677 249.426 399.557 247.965C399.454 246.707 399.704 245.596 400.309 244.632C400.922 243.666 401.829 242.886 403.029 242.292C404.237 241.696 405.677 241.33 407.351 241.192C409.823 240.989 411.811 241.352 413.315 242.28C414.828 243.207 415.777 244.562 416.163 246.343Z" fill="white"/>
<path d="M429.26 239.648L429.595 243.725L417.81 244.694L417.475 240.617L429.26 239.648ZM419.765 235.708L425.192 235.262L426.692 253.507C426.734 254.008 426.842 254.392 427.018 254.66C427.193 254.919 427.421 255.093 427.702 255.181C427.992 255.269 428.319 255.297 428.684 255.267C428.939 255.246 429.192 255.204 429.443 255.141C429.694 255.069 429.886 255.014 430.02 254.978L431.206 258.947C430.941 259.054 430.567 259.183 430.083 259.334C429.6 259.493 429.007 259.615 428.305 259.698C427.001 259.857 425.84 259.777 424.822 259.459C423.812 259.14 423.001 258.582 422.388 257.786C421.775 256.99 421.42 255.95 421.323 254.667L419.765 235.708Z" fill="white"/>
<path opacity="0.2" d="M185.594 147.602C179.356 148.089 173.562 151.016 169.468 155.748C165.375 160.48 163.313 166.636 163.729 172.879L173.915 314.149C174.397 320.397 177.327 326.201 182.067 330.299C186.807 334.397 192.974 336.457 199.225 336.031L201.721 335.844C205.867 335.545 209.798 333.885 212.905 331.122C216.011 328.36 218.118 324.649 218.9 320.566L253.038 142.73L185.594 147.602Z" fill="black"/>
<path d="M181.452 101.089C181.376 103.574 181.506 106.061 181.842 108.524C166.46 113.661 150.055 114.961 134.056 112.31C134.824 109.406 135.291 106.431 135.448 103.432C134.913 106.452 133.862 109.358 132.342 112.021C129.32 111.444 127.622 110.952 127.622 110.952C127.622 110.952 130.712 94.248 125.144 82.0935C119.576 69.939 122.36 63.1487 126.57 61.2305C134.379 37.227 163.729 41.0126 173.66 50.7566C186.256 63.1148 186.324 97.9317 188.565 105.893C186.714 106.691 184.898 107.421 183.082 108.066C182.172 105.842 181.622 103.487 181.452 101.089Z" fill="#263238"/>
<path d="M193.589 138.452L195.117 143.29C195.677 144.988 196.238 146.686 196.815 148.298C197.952 151.693 199.14 155.088 200.414 158.348C201.687 161.607 202.909 165.036 204.233 168.363L206.202 173.456L206.695 174.712L206.813 175.001C206.604 174.817 206.362 174.673 206.1 174.576C205.727 174.441 205.574 174.576 205.812 174.576C206.221 174.575 206.627 174.512 207.017 174.39C208.345 173.969 209.62 173.4 210.82 172.692C213.715 171.005 216.483 169.11 219.104 167.022C221.854 164.883 224.553 162.592 227.201 160.232C229.849 157.872 232.514 155.411 235.078 153L240.289 157.414C238.116 160.538 235.825 163.389 233.499 166.292C231.173 169.195 228.559 171.911 225.877 174.61C223.116 177.428 220.111 179.996 216.897 182.283C215.058 183.572 213.082 184.653 211.006 185.509C209.689 186.037 208.308 186.391 206.898 186.561C204.985 186.799 203.043 186.536 201.262 185.797C199.321 184.97 197.668 183.588 196.509 181.825C196.255 181.435 196.017 181.044 195.83 180.688L195.372 179.771L194.761 178.532C193.963 176.834 193.063 175.137 192.367 173.541C190.822 170.146 189.278 166.751 187.869 163.356C186.46 159.96 185.085 156.463 183.778 152.967C183.166 151.269 182.555 149.419 181.978 147.636C181.401 145.854 180.841 144.105 180.281 142.017L193.589 138.452Z" fill="#FFC3BD"/>
<path d="M189.566 123.378C195.423 124.872 199.514 148.943 199.514 148.943L183.387 159.909C183.387 159.909 167.939 135.617 172.438 129.184C177.123 122.495 181.028 121.205 189.566 123.378Z" fill="#299FD9"/>
<path d="M189.566 123.378C195.423 124.872 199.514 148.943 199.514 148.943L183.387 159.909C183.387 159.909 167.939 135.617 172.438 129.184C177.123 122.495 181.028 121.205 189.566 123.378Z" fill="#299FD9"/>
<path opacity="0.4" d="M189.566 123.378C195.423 124.872 199.514 148.943 199.514 148.943L183.387 159.909C183.387 159.909 167.939 135.617 172.438 129.184C177.123 122.495 181.028 121.205 189.566 123.378Z" fill="white"/>
<path opacity="0.3" d="M189.04 128.759L193.539 153.017L184.474 159.163L189.04 128.759Z" fill="black"/>
<path d="M234.806 153.577L240.187 140.608L246.825 153.577C246.825 153.577 242.513 160.028 236.826 158.449L234.806 153.577Z" fill="#FFC3BD"/>
<path d="M246.112 139.267L254.634 142.696L246.825 153.578L240.17 140.608L246.112 139.267Z" fill="#FFC3BD"/>
<path d="M157.907 528.619H172.115L173.066 495.737H158.857L157.907 528.619Z" fill="#FFC3BD"/>
<path d="M62.6399 486.265L75.6941 491.833L92.7885 463.382L79.7173 457.814L62.6399 486.265Z" fill="#FFC3BD"/>
<path d="M78.2065 489.897L64.626 481.545C64.3938 481.396 64.1147 481.338 63.8421 481.382C63.5696 481.426 63.3228 481.568 63.1492 481.783L54.9839 491.578C54.7808 491.834 54.6348 492.131 54.5559 492.449C54.4771 492.766 54.467 493.097 54.5265 493.418C54.586 493.74 54.7137 494.045 54.9009 494.313C55.0881 494.581 55.3306 494.806 55.612 494.973C60.3991 497.808 62.8436 498.928 68.819 502.595C72.5027 504.87 77.6293 508.537 82.705 511.66C87.7807 514.784 91.1928 509.963 89.3085 508.18C81.0754 500.32 81.313 496.586 79.7682 491.934C79.5115 491.089 78.9566 490.365 78.2065 489.897Z" fill="#263238"/>
<path d="M172.591 526.972H156.651C156.376 526.969 156.11 527.065 155.901 527.243C155.692 527.421 155.554 527.668 155.513 527.94L153.697 540.57C153.653 540.894 153.679 541.223 153.775 541.536C153.87 541.849 154.033 542.137 154.251 542.381C154.469 542.624 154.737 542.818 155.037 542.948C155.337 543.078 155.662 543.141 155.989 543.133C161.557 543.048 164.239 542.709 171.267 542.709C175.578 542.709 184.508 543.167 190.466 543.167C196.424 543.167 196.73 537.276 194.251 536.733C183.132 534.34 178.753 531.046 175.001 527.906C174.337 527.314 173.481 526.982 172.591 526.972Z" fill="#263238"/>
<path opacity="0.2" d="M173.049 495.754L172.574 512.696H158.365L158.857 495.754H173.049Z" fill="black"/>
<path opacity="0.2" d="M79.7173 457.831L92.7715 463.382L83.9612 478.049L70.907 472.481L79.7173 457.831Z" fill="black"/>
<path d="M189.566 123.378C189.566 123.378 196.356 125.755 182.776 209.054H125.059C126.027 185.594 126.061 171.13 114.874 122.971C122.944 121.303 131.125 120.225 139.352 119.745C148.072 119.116 156.826 119.116 165.546 119.745C176.818 120.764 189.566 123.378 189.566 123.378Z" fill="#299FD9"/>
<path opacity="0.4" d="M189.566 123.378C189.566 123.378 196.356 125.755 182.776 209.054H125.059C126.027 185.594 126.061 171.13 114.874 122.971C122.944 121.303 131.125 120.225 139.352 119.745C148.072 119.116 156.826 119.116 165.546 119.745C176.818 120.764 189.566 123.378 189.566 123.378Z" fill="white"/>
<path d="M139.386 119.728C148.107 119.116 156.859 119.116 165.58 119.728C166.989 119.864 168.432 120.017 169.858 120.187C170.451 121.079 170.832 122.095 170.97 123.158C171.108 124.22 171.001 125.3 170.655 126.315C168.805 130.881 162.168 131.407 157.347 131.407C139.505 131.407 136.484 120.984 136.365 120.543L136.195 119.915L139.386 119.728Z" fill="white"/>
<path d="M141.984 90.2588C143.681 98.7466 145.294 114.126 139.386 119.745C139.386 119.745 141.695 128.233 157.347 128.233C174.56 128.233 165.58 119.745 165.58 119.745C156.175 117.505 156.43 110.528 158.06 103.992L141.984 90.2588Z" fill="#FFC3BD"/>
<path d="M143.698 84.2664C141.678 90.9378 144.479 106.725 148.638 112.836C140.439 108.134 137.672 93.8066 137.672 93.8066L143.698 84.2664Z" fill="#263238"/>
<path opacity="0.2" d="M148.536 95.8606L158.06 103.975C157.642 105.496 157.369 107.054 157.245 108.626C153.663 108.1 148.757 104.162 148.35 100.41C148.139 98.8946 148.202 97.3536 148.536 95.8606Z" fill="black"/>
<path d="M134.209 75.2182C137.502 88.9175 138.589 94.7911 146.839 100.682C159.248 109.526 175.358 102.498 176.223 88.0857C177.004 75.1164 171.504 54.8985 156.99 51.775C153.792 51.0689 150.467 51.1918 147.33 52.132C144.193 53.0723 141.348 54.7986 139.066 57.1473C136.783 59.496 135.139 62.389 134.289 65.5517C133.439 68.7144 133.411 72.0418 134.209 75.2182Z" fill="#FFC3BD"/>
<path d="M182.793 209.054C182.793 209.054 193.98 318.41 192.978 361.698C192.011 406.717 175.51 509.386 175.51 509.386H156.328C156.328 509.386 159.367 409.315 157.669 365.093C155.819 316.883 140.507 209.02 140.507 209.02L182.793 209.054Z" fill="#299FD9"/>
<path opacity="0.4" d="M182.793 209.054C182.793 209.054 193.98 318.41 192.978 361.698C192.011 406.717 175.51 509.386 175.51 509.386H156.328C156.328 509.386 159.367 409.315 157.669 365.093C155.819 316.883 140.507 209.02 140.507 209.02L182.793 209.054Z" fill="black"/>
<path d="M154.732 510.099H177.242L178.906 502.918L153.68 502.035L154.732 510.099Z" fill="#299FD9"/>
<path opacity="0.2" d="M157.924 236.266C172.081 264.751 160.759 316.713 155.751 336.048C153.188 307.02 148.859 271.541 145.481 245.449C147.62 230.783 151.388 223.127 157.924 236.266Z" fill="black"/>
<path d="M167.566 209.054C167.566 209.054 154.495 322.79 144.632 359.237C132.936 402.575 88.4088 476.368 88.4088 476.368L70.6014 468.797C70.6014 468.797 98.1528 385.005 107.116 362.173C126.213 313.453 109.866 240.849 125.127 209.054H167.566Z" fill="#299FD9"/>
<path opacity="0.4" d="M167.566 209.054C167.566 209.054 154.495 322.79 144.632 359.237C132.936 402.575 88.4088 476.368 88.4088 476.368L70.6014 468.797C70.6014 468.797 98.1528 385.005 107.116 362.173C126.213 313.453 109.866 240.849 125.127 209.054H167.566Z" fill="black"/>
<path d="M68.14 468.848L90.2422 478.252L95.5555 472.311L70.0582 460.072L68.14 468.848Z" fill="#299FD9"/>
<path d="M155.989 75.405C156.192 76.5254 156.939 77.3402 157.686 77.2044C158.433 77.0686 158.857 76.0501 158.654 74.9297C158.45 73.8093 157.703 72.9945 156.956 73.1133C156.209 73.2321 155.7 74.2677 155.989 75.405Z" fill="#263238"/>
<path d="M168.652 73.1643C168.839 74.2847 169.603 75.0995 170.35 74.9637C171.097 74.8279 171.538 73.8094 171.334 72.689C171.131 71.5686 170.384 70.7538 169.637 70.8726C168.89 70.9914 168.449 72.0269 168.652 73.1643Z" fill="#263238"/>
<path d="M169.314 71.0083L171.878 69.7351C171.878 69.7351 170.859 72.0947 169.314 71.0083Z" fill="#263238"/>
<path d="M165.614 75.6936C167.071 78.0895 168.854 80.2718 170.91 82.1783C170.406 82.6883 169.798 83.0829 169.127 83.3349C168.455 83.587 167.738 83.6904 167.023 83.6382L165.614 75.6936Z" fill="#ED847E"/>
<path d="M161.913 88.9515C162.556 88.9503 163.198 88.8935 163.831 88.7817C163.88 88.7798 163.927 88.7674 163.971 88.7456C164.014 88.7237 164.052 88.6929 164.082 88.655C164.113 88.6172 164.135 88.5733 164.147 88.5263C164.159 88.4793 164.16 88.4302 164.152 88.3825C164.143 88.3347 164.125 88.2894 164.097 88.2495C164.069 88.2096 164.034 88.176 163.992 88.1511C163.95 88.1262 163.904 88.1105 163.856 88.1051C163.807 88.0997 163.759 88.1047 163.712 88.1197C162.315 88.3982 160.871 88.3419 159.499 87.9554C158.127 87.5689 156.866 86.8632 155.819 85.8959C155.755 85.8337 155.67 85.7988 155.581 85.7988C155.492 85.7988 155.407 85.8337 155.343 85.8959C155.311 85.9261 155.284 85.9628 155.266 86.0037C155.248 86.0446 155.239 86.0888 155.239 86.1335C155.239 86.1782 155.248 86.2224 155.266 86.2633C155.284 86.3043 155.311 86.341 155.343 86.3712C157.115 88.0516 159.471 88.9769 161.913 88.9515Z" fill="#263238"/>
<path d="M139.013 67.1888C139.384 70.7987 139.951 74.3858 140.711 77.9344C140.711 77.9344 149.198 67.1888 150.607 61.4341C150.271 63.6998 149.613 65.9061 148.655 67.9867C148.655 67.9867 160.08 65.4913 161.2 57.9541C161.181 61.3284 160.805 64.6912 160.08 67.9867C160.08 67.9867 170.978 63.7088 169.976 56.4772C168.975 49.2457 152.237 46.4447 144.513 48.8891C136.789 51.3336 129.235 59.2612 131.51 70.1595C133.784 81.0579 138.147 85.149 138.147 85.149C138.147 85.149 135.007 74.1658 139.013 67.1888Z" fill="#263238"/>
<path d="M133.615 85.5394C134.663 88.054 136.665 90.0503 139.183 91.0904C142.578 92.4485 144.598 89.5456 144.004 86.1845C143.478 83.1458 141.084 78.8001 137.57 78.868C136.801 78.902 136.053 79.1271 135.393 79.5227C134.733 79.9184 134.181 80.4723 133.789 81.1344C133.396 81.7964 133.175 82.5458 133.144 83.3148C133.114 84.0839 133.276 84.8484 133.615 85.5394Z" fill="#FFC3BD"/>
<path d="M141.067 61.9604C139.369 68.7507 142.9 84.3682 147.348 90.2587C138.86 85.9639 135.465 71.7723 135.465 71.7723L141.067 61.9604Z" fill="#263238"/>
<path d="M151.337 71.5347C151.424 71.5084 151.505 71.4647 151.575 71.4064C151.645 71.348 151.703 71.2762 151.745 71.1952C152.102 70.4294 152.637 69.7594 153.304 69.2401C153.971 68.7207 154.751 68.3668 155.581 68.2075C155.757 68.1822 155.916 68.0907 156.026 67.9519C156.137 67.8131 156.19 67.6373 156.175 67.4606C156.167 67.3718 156.141 67.2857 156.098 67.2073C156.056 67.129 155.998 67.06 155.928 67.0045C155.859 66.949 155.778 66.9082 155.692 66.8845C155.606 66.8608 155.517 66.8546 155.428 66.8664C154.375 67.0492 153.381 67.4822 152.531 68.1292C151.68 68.7762 150.997 69.6181 150.539 70.5841C150.482 70.7021 150.46 70.8343 150.475 70.9647C150.491 71.0951 150.545 71.2181 150.629 71.3187C150.714 71.4193 150.826 71.4933 150.951 71.5316C151.077 71.57 151.211 71.571 151.337 71.5347Z" fill="#263238"/>
<path d="M173.287 66.2721C173.372 66.2758 173.457 66.261 173.536 66.2288C173.615 66.1966 173.687 66.1477 173.745 66.0854C173.869 65.9585 173.939 65.7878 173.939 65.6101C173.939 65.4324 173.869 65.2617 173.745 65.1348C173.021 64.3513 172.123 63.7494 171.123 63.3778C170.123 63.0062 169.05 62.8754 167.99 62.9959C167.902 63.0122 167.818 63.0458 167.743 63.0948C167.667 63.1438 167.603 63.2073 167.552 63.2815C167.502 63.3557 167.466 63.4391 167.448 63.5271C167.43 63.615 167.43 63.7056 167.447 63.7937C167.484 63.9654 167.586 64.1161 167.731 64.2142C167.877 64.3123 168.055 64.3502 168.228 64.32C169.064 64.2266 169.91 64.3316 170.697 64.6266C171.485 64.9215 172.192 65.3981 172.76 66.0175C172.824 66.0965 172.904 66.1603 172.995 66.2044C173.086 66.2484 173.186 66.2716 173.287 66.2721Z" fill="#263238"/>
<path d="M121.919 143.121C119.559 150.573 117.301 158.399 115.383 166.106C113.452 173.714 112.04 181.444 111.156 189.243L111.02 190.669C111.02 191.128 111.02 191.229 111.02 191.637C111.039 192.437 111.101 193.236 111.207 194.03C111.423 195.89 111.735 197.737 112.141 199.564C112.938 203.35 113.838 207.254 114.993 211.125C116.147 214.995 117.131 218.934 118.286 222.838L121.681 234.551L115.383 237.148C111.513 229.747 108.151 222.21 105.011 214.435C103.5 210.531 102.023 206.592 100.801 202.433C100.19 200.362 99.6127 198.24 99.1034 195.932C98.8616 194.709 98.6916 193.473 98.5941 192.231C98.5941 191.603 98.5941 190.669 98.5941 190.109V188.411C98.7381 184.086 99.1348 179.772 99.7824 175.493C100.343 171.249 101.174 167.107 102.074 162.982C103.84 154.72 106.108 146.574 108.864 138.588L121.919 143.121Z" fill="#FFC3BD"/>
<path d="M114.908 122.971C109.136 124.668 102.193 144.614 102.193 144.614L124.601 160.639C124.601 160.639 132.783 144.037 130.355 136.568C127.826 128.793 121.511 120.967 114.908 122.971Z" fill="#299FD9"/>
<path opacity="0.4" d="M114.908 122.971C109.136 124.668 102.193 144.614 102.193 144.614L124.601 160.639C124.601 160.639 132.783 144.037 130.355 136.568C127.826 128.793 121.511 120.967 114.908 122.971Z" fill="white"/>
<path d="M83.9442 495.296C84.2202 495.199 84.4714 495.042 84.6798 494.836C84.8881 494.631 85.0485 494.382 85.1495 494.107C85.2476 493.931 85.2991 493.732 85.2991 493.53C85.2991 493.328 85.2476 493.13 85.1495 492.953C84.1309 491.459 78.9873 491.578 78.3593 491.595C78.2941 491.596 78.2307 491.616 78.1766 491.652C78.1224 491.688 78.0797 491.739 78.0537 491.799C78.0206 491.852 78.0031 491.914 78.0031 491.977C78.0031 492.04 78.0206 492.102 78.0537 492.155C79.3948 493.496 81.9072 495.686 83.6726 495.347L83.9442 495.296ZM79.1741 492.206C81.2281 492.206 83.9782 492.495 84.5214 493.293C84.5678 493.369 84.5924 493.457 84.5924 493.547C84.5924 493.637 84.5678 493.725 84.5214 493.802C84.4463 494.007 84.3218 494.19 84.1589 494.335C83.9961 494.48 83.7998 494.583 83.5877 494.634C82.6541 494.871 81.0244 493.904 79.1741 492.206Z" fill="#299FD9"/>
<path d="M80.6849 491.85C82.2467 491.357 83.9103 490.492 84.2668 489.524C84.3553 489.272 84.3566 488.998 84.2704 488.746C84.1841 488.493 84.0155 488.277 83.7914 488.132C83.5937 487.967 83.3611 487.849 83.1111 487.788C82.8611 487.726 82.6003 487.722 82.3485 487.776C80.3284 488.132 78.1556 491.595 78.0707 491.748C78.0409 491.8 78.0252 491.858 78.0252 491.918C78.0252 491.977 78.0409 492.036 78.0707 492.087C78.1012 492.137 78.1435 492.179 78.1938 492.208C78.2441 492.238 78.3009 492.255 78.3593 492.257C79.1501 492.235 79.9335 492.098 80.6849 491.85ZM82.2467 488.455H82.4674C82.627 488.421 82.792 488.424 82.9505 488.462C83.109 488.5 83.257 488.573 83.384 488.675C83.7236 488.947 83.6896 489.151 83.6387 489.303C83.2992 490.237 80.7189 491.357 79.0043 491.578C79.7844 490.273 80.9053 489.205 82.2467 488.489V488.455Z" fill="#299FD9"/>
<path d="M177.921 529.451C179.118 529.549 180.313 529.244 181.316 528.585C181.549 528.374 181.727 528.108 181.834 527.812C181.94 527.516 181.972 527.199 181.927 526.887C181.914 526.703 181.854 526.526 181.753 526.371C181.652 526.217 181.513 526.09 181.35 526.004C179.652 525.054 173.966 527.94 173.321 528.262C173.258 528.288 173.205 528.331 173.168 528.387C173.13 528.443 173.11 528.509 173.11 528.576C173.11 528.644 173.13 528.709 173.168 528.765C173.205 528.821 173.258 528.865 173.321 528.89C174.831 529.232 176.373 529.42 177.921 529.451ZM180.45 526.514C180.666 526.5 180.882 526.541 181.078 526.633C181.145 526.669 181.201 526.723 181.24 526.789C181.279 526.855 181.299 526.93 181.299 527.006C181.331 527.201 181.313 527.401 181.248 527.588C181.183 527.775 181.072 527.942 180.926 528.075C180.06 528.856 177.717 528.992 174.577 528.466C176.41 527.487 178.396 526.827 180.45 526.514Z" fill="#299FD9"/>
<path d="M173.524 528.958H173.66C175.358 528.194 178.753 525.139 178.447 523.526C178.447 523.136 178.108 522.677 177.174 522.575C176.84 522.538 176.502 522.57 176.18 522.669C175.859 522.769 175.562 522.933 175.307 523.153C173.609 524.646 173.202 528.466 173.185 528.619C173.183 528.678 173.196 528.738 173.222 528.791C173.249 528.844 173.289 528.89 173.338 528.924C173.393 528.959 173.46 528.971 173.524 528.958ZM176.919 523.204H177.123C177.734 523.204 177.785 523.526 177.785 523.594C177.955 524.562 175.68 526.989 173.949 528.025C174.085 526.411 174.719 524.881 175.765 523.645C176.076 523.362 176.482 523.205 176.902 523.204H176.919Z" fill="#299FD9"/>
<path d="M124.261 205.676L122.801 210.768C122.598 211.159 123.073 211.566 123.735 211.566H183.149C183.676 211.566 184.1 211.311 184.134 210.989L184.66 205.896C184.66 205.54 184.236 205.234 183.676 205.234H125.212C125.029 205.22 124.845 205.253 124.679 205.33C124.512 205.408 124.368 205.527 124.261 205.676Z" fill="#263238"/>
<path d="M132.104 212.194H130.525C130.22 212.194 129.982 212.041 129.999 211.838L130.729 205.047C130.729 204.861 131.034 204.691 131.34 204.691H132.902C133.224 204.691 133.445 204.861 133.428 205.047L132.698 211.838C132.698 212.109 132.426 212.194 132.104 212.194Z" fill="#299FD9"/>
<path opacity="0.4" d="M132.104 212.194H130.525C130.22 212.194 129.982 212.041 129.999 211.838L130.729 205.047C130.729 204.861 131.034 204.691 131.34 204.691H132.902C133.224 204.691 133.445 204.861 133.428 205.047L132.698 211.838C132.698 212.109 132.426 212.194 132.104 212.194Z" fill="black"/>
<path d="M178.668 212.194H177.106C176.801 212.194 176.563 212.041 176.58 211.838L177.327 205.047C177.327 204.861 177.615 204.691 177.921 204.691H179.483C179.805 204.691 180.043 204.861 180.009 205.047L179.279 211.838C179.262 212.109 178.99 212.194 178.668 212.194Z" fill="#299FD9"/>
<path opacity="0.4" d="M178.668 212.194H177.106C176.801 212.194 176.563 212.041 176.58 211.838L177.327 205.047C177.327 204.861 177.615 204.691 177.921 204.691H179.483C179.805 204.691 180.043 204.861 180.009 205.047L179.279 211.838C179.262 212.109 178.99 212.194 178.668 212.194Z" fill="black"/>
<path d="M155.394 212.194H153.833C153.51 212.194 153.272 212.041 153.306 211.838L154.036 205.047C154.036 204.861 154.325 204.691 154.647 204.691H156.209C156.515 204.691 156.752 204.861 156.735 205.047L156.006 211.838C155.989 212.109 155.7 212.194 155.394 212.194Z" fill="#299FD9"/>
<path opacity="0.4" d="M155.394 212.194H153.833C153.51 212.194 153.272 212.041 153.306 211.838L154.036 205.047C154.036 204.861 154.325 204.691 154.647 204.691H156.209C156.515 204.691 156.752 204.861 156.735 205.047L156.006 211.838C155.989 212.109 155.7 212.194 155.394 212.194Z" fill="black"/>
<path d="M156.566 73.2323L159.129 71.9761C159.129 71.9761 158.11 74.3357 156.566 73.2323Z" fill="#263238"/>
<path d="M121.206 232.633L133.377 241.969L119.27 245.076C119.27 245.076 113.278 238.286 115.349 232.684L121.206 232.633Z" fill="#FFC3BD"/>
<path d="M136.365 253.53L124.414 255.482L117.895 243.225L133.377 241.969L136.365 253.53Z" fill="#FFC3BD"/>
</svg>
