<svg width="64" height="64" viewBox="0 0 64 64" fill="none" xmlns="http://www.w3.org/2000/svg">
<path d="M60.3236 56.0407H3.67651V53.1465C3.67651 52.2608 4.39439 51.543 5.28001 51.543H58.72C59.6056 51.543 60.3235 52.2608 60.3235 53.1465V56.0407H60.3236Z" fill="#101840"/>
<path d="M58.72 51.543H55.5506C56.4363 51.543 57.1541 52.2608 57.1541 53.1465V56.0407H60.3235V53.1465C60.3236 52.2608 59.6056 51.543 58.72 51.543Z" fill="#282E49"/>
<path d="M54.2599 51.5432H9.74011V36.0663C9.74011 35.2142 10.4309 34.5234 11.283 34.5234H52.717C53.5691 34.5234 54.2599 35.2142 54.2599 36.0663V51.5432Z" fill="#FFD064"/>
<path d="M48.5908 48.9304H38.3408C37.8575 48.9304 37.4658 48.5387 37.4658 48.0554V45.7168C37.4658 45.2335 37.8575 44.8418 38.3408 44.8418H48.5908C49.074 44.8418 49.4658 45.2335 49.4658 45.7168V48.0554C49.4658 48.5387 49.074 48.9304 48.5908 48.9304Z" fill="#F7B741"/>
<path d="M49.4657 41.8065H37.4657C36.9324 41.8065 36.5 41.3741 36.5 40.8408C36.5 40.3074 36.9324 39.875 37.4657 39.875H49.4657C49.9992 39.875 50.4315 40.3074 50.4315 40.8408C50.4316 41.3741 49.9992 41.8065 49.4657 41.8065Z" fill="#F7B741"/>
<path d="M16.2855 45.9584C15.926 45.9584 15.6347 45.6671 15.6347 45.3075V40.5434C15.6347 40.1839 15.926 39.8926 16.2855 39.8926C16.6451 39.8926 16.9364 40.1839 16.9364 40.5434V45.3075C16.9364 45.6671 16.645 45.9584 16.2855 45.9584Z" fill="#101840"/>
<path d="M18.2951 42.4113C18.1299 42.4113 17.9646 42.3488 17.8377 42.2235L16.2854 40.6905L14.7332 42.2235C14.4774 42.4759 14.0654 42.4736 13.8128 42.2178C13.5602 41.9621 13.5628 41.55 13.8184 41.2974L15.828 39.3128C16.0816 39.0624 16.4892 39.0624 16.7428 39.3128L18.7524 41.2974C19.008 41.55 19.0107 41.9621 18.758 42.2178C18.6309 42.3467 18.4629 42.4113 18.2951 42.4113Z" fill="#101840"/>
<path d="M22.7247 45.9584C22.3652 45.9584 22.0739 45.6671 22.0739 45.3075V40.5434C22.0739 40.1839 22.3652 39.8926 22.7247 39.8926C23.0843 39.8926 23.3756 40.1839 23.3756 40.5434V45.3075C23.3756 45.6671 23.0842 45.9584 22.7247 45.9584Z" fill="#101840"/>
<path d="M24.7343 42.4113C24.5691 42.4113 24.4038 42.3488 24.2769 42.2235L22.7246 40.6905L21.1724 42.2235C20.9167 42.4759 20.5046 42.4736 20.252 42.2178C19.9994 41.9621 20.002 41.55 20.2576 41.2974L22.2672 39.3128C22.5208 39.0624 22.9284 39.0624 23.182 39.3128L25.1916 41.2974C25.4472 41.55 25.4499 41.9621 25.1972 42.2178C25.0701 42.3467 24.9022 42.4113 24.7343 42.4113Z" fill="#101840"/>
<path d="M24.1319 49.625H14.8568C14.3389 49.625 13.9193 49.2054 13.9193 48.6875C13.9193 48.1696 14.3389 47.75 14.8568 47.75H24.1319C24.6497 47.75 25.0694 48.1696 25.0694 48.6875C25.0694 49.2054 24.6496 49.625 24.1319 49.625Z" fill="#101840"/>
<path d="M52.717 34.5234H49.5267C50.3789 34.5234 51.0696 35.2142 51.0696 36.0663V51.5432H54.2599V36.0663C54.26 35.2142 53.5691 34.5234 52.717 34.5234Z" fill="#FFC250"/>
<path d="M63.0625 56.9766H0.9375C0.419625 56.9766 0 56.5569 0 56.0391C0 55.5212 0.419625 55.1016 0.9375 55.1016H63.0625C63.5804 55.1016 64 55.5212 64 56.0391C64 56.5569 63.5804 56.9766 63.0625 56.9766Z" fill="#59C8C1"/>
<path d="M34.7424 40.573H29.2576C28.75 40.573 28.3385 40.1615 28.3385 39.6539V34.5H35.6615V39.6539C35.6615 40.1615 35.25 40.573 34.7424 40.573Z" fill="#101840"/>
<path d="M32.9918 34.5V39.6539C32.9918 40.1615 32.5803 40.573 32.0726 40.573H34.7425C35.2501 40.573 35.6616 40.1615 35.6616 39.6539V34.5H32.9918Z" fill="#282E49"/>
</svg>
